<svg width="64" height="64" viewBox="0 0 64 64" fill="none" xmlns="http://www.w3.org/2000/svg">
<g id="Bag_alt_fill">
<path id="Vector 9" d="M21.3333 32L21.3333 21.3333C21.3333 15.4423 26.109 10.6667 32 10.6667V10.6667C37.891 10.6667 42.6667 15.4423 42.6667 21.3333L42.6667 32" stroke="white" stroke-width="5.33333" stroke-linecap="round"/>
<path id="Rectangle 1" d="M9.8516 33.7809C10.2385 29.1385 10.4319 26.8173 11.9628 25.4086C13.4937 24 15.8229 24 20.4814 24H43.5186C48.1771 24 50.5063 24 52.0372 25.4086C53.5681 26.8173 53.7615 29.1385 54.1484 33.7808L55.5186 50.2238C55.7439 52.9265 55.8565 54.2779 55.0642 55.139C54.2719 56 52.9159 56 50.2037 56H13.7963C11.0841 56 9.72805 56 8.93578 55.139C8.14351 54.2779 8.25612 52.9265 8.48135 50.2238L9.8516 33.7809Z" fill="white"/>
</g>
</svg>
