<svg width="64" height="64" viewBox="0 0 64 64" fill="none" xmlns="http://www.w3.org/2000/svg">
<g id="Box_alt_fill">
<path id="Rectangle 2" d="M10.6667 19.7711C10.6667 19.2261 10.6667 18.9536 10.7682 18.7085C10.8696 18.4635 11.0623 18.2708 11.4477 17.8855L15.5425 13.7907C17.084 12.2492 17.8547 11.4785 18.8348 11.0725C19.8149 10.6665 20.9049 10.6665 23.0849 10.6665H40.915C43.0951 10.6665 44.1851 10.6665 45.1652 11.0725C46.1453 11.4785 46.916 12.2492 48.4575 13.7907L52.5523 17.8855C52.9376 18.2708 53.1303 18.4635 53.2318 18.7085C53.3333 18.9536 53.3333 19.2261 53.3333 19.7711V21.3332H10.6667V19.7711Z" stroke="white" stroke-width="5.33333"/>
<path id="Subtract" fill-rule="evenodd" clip-rule="evenodd" d="M56 21.3335H8V45.3335C8 50.3618 8 52.876 9.5621 54.4381C11.1242 56.0002 13.6384 56.0002 18.6667 56.0002H45.3333C50.3616 56.0002 52.8758 56.0002 54.4379 54.4381C56 52.876 56 50.3618 56 45.3335V21.3335ZM26.6667 29.3333C26.6667 27.8606 25.4728 26.6667 24 26.6667C22.5272 26.6667 21.3333 27.8606 21.3333 29.3333C21.3333 32.1623 22.4571 34.8754 24.4575 36.8758C26.4579 38.8762 29.171 40 32 40C34.829 40 37.5421 38.8762 39.5425 36.8758C41.5429 34.8754 42.6667 32.1623 42.6667 29.3333C42.6667 27.8606 41.4728 26.6667 40 26.6667C38.5272 26.6667 37.3333 27.8606 37.3333 29.3333C37.3333 30.7478 36.7714 32.1044 35.7712 33.1046C34.771 34.1048 33.4145 34.6667 32 34.6667C30.5855 34.6667 29.229 34.1048 28.2288 33.1046C27.2286 32.1044 26.6667 30.7478 26.6667 29.3333Z" fill="white"/>
</g>
</svg>
