<svg width="64" height="64" viewBox="0 0 64 64" fill="none" xmlns="http://www.w3.org/2000/svg">
<g id="3d_box_fill">
<path id="Subtract" fill-rule="evenodd" clip-rule="evenodd" d="M25.8001 51.5719L17.8001 45.8576C15.6104 44.2935 14.5155 43.5115 13.9244 42.3628C13.3333 41.2142 13.3333 39.8687 13.3333 37.1778V26.823C13.3333 25.966 13.3333 25.2456 13.3524 24.6244L29.3333 36.0394V53.9505C28.382 53.4161 27.272 52.6232 25.8001 51.5719ZM34.6667 53.9505C35.618 53.4161 36.728 52.6232 38.1999 51.5719L46.1999 45.8576C48.3896 44.2935 49.4844 43.5115 50.0756 42.3628C50.6667 41.2142 50.6667 39.8687 50.6667 37.1778V26.823C50.6667 25.966 50.6667 25.2456 50.6476 24.6244L34.6667 36.0394V53.9505ZM48.3401 19.7184L32 31.39L15.6598 19.7184C16.2233 19.2695 16.9241 18.7689 17.8001 18.1431L17.8001 18.1431L25.8001 12.4289L25.8001 12.4288C28.7939 10.2904 30.2908 9.22119 32 9.22119C33.7091 9.22119 35.2061 10.2904 38.1999 12.4289L46.1999 18.1431C47.0759 18.7689 47.7767 19.2695 48.3401 19.7184Z" fill="white"/>
</g>
</svg>
