<svg width="25" height="25" viewBox="0 0 25 25" fill="none" xmlns="http://www.w3.org/2000/svg">
<g id="Done_ring_round_fill">
<path id="Subtract" fill-rule="evenodd" clip-rule="evenodd" d="M12.5 21.5C17.4706 21.5 21.5 17.4706 21.5 12.5C21.5 10.6666 20.9518 8.96124 20.0103 7.53891L12.855 15.4893C12.1624 16.2589 10.9968 16.3726 10.1684 15.7513L6.9 13.3C6.45817 12.9686 6.36863 12.3418 6.7 11.9C7.03137 11.4582 7.65817 11.3686 8.1 11.7L11.3684 14.1513L18.714 5.98955C17.0986 4.44717 14.9099 3.5 12.5 3.5C7.52944 3.5 3.5 7.52944 3.5 12.5C3.5 17.4706 7.52944 21.5 12.5 21.5Z" fill="white"/>
</g>
</svg>
