<svg width="64" height="64" viewBox="0 0 64 64" fill="none" xmlns="http://www.w3.org/2000/svg">
<g id="User_box_fill">
<path id="Subtract" fill-rule="evenodd" clip-rule="evenodd" d="M5.33331 13.3335C5.33331 9.56226 5.33331 7.67664 6.50489 6.50507C7.67646 5.3335 9.56208 5.3335 13.3333 5.3335H50.6667C54.4379 5.3335 56.3235 5.3335 57.4951 6.50507C58.6666 7.67664 58.6666 9.56226 58.6666 13.3335V50.6668C58.6666 54.4381 58.6666 56.3237 57.4951 57.4953C56.3235 58.6668 54.4379 58.6668 50.6666 58.6668H13.3333C9.56207 58.6668 7.67646 58.6668 6.50489 57.4953C5.33331 56.3237 5.33331 54.4381 5.33331 50.6668V13.3335ZM23.9685 39.8058C26.2726 38.0378 29.0957 37.0795 32 37.0795C34.9042 37.0795 37.7273 38.0378 40.0314 39.8058C42.3355 41.5738 43.9919 44.0527 44.7435 46.858C44.9531 47.64 44.489 48.4438 43.707 48.6533C42.925 48.8629 42.1212 48.3988 41.9116 47.6168C41.327 45.4349 40.0387 43.5069 38.2467 42.1318C36.4546 40.7567 34.2588 40.0113 32 40.0113C29.7411 40.0113 27.5454 40.7567 25.7533 42.1318C23.9612 43.5069 22.673 45.4349 22.0883 47.6168C21.8788 48.3988 21.075 48.8629 20.293 48.6533C19.511 48.4438 19.0469 47.64 19.2564 46.858C20.0081 44.0527 21.6644 41.5738 23.9685 39.8058ZM27.6023 24.8636C27.6023 22.4348 29.5712 20.4659 32 20.4659C34.4288 20.4659 36.3977 22.4348 36.3977 24.8636C36.3977 27.2924 34.4288 29.2613 32 29.2613C29.5712 29.2613 27.6023 27.2924 27.6023 24.8636ZM32 17.5341C27.952 17.5341 24.6705 20.8156 24.6705 24.8636C24.6705 28.9116 27.952 32.1931 32 32.1931C36.048 32.1931 39.3295 28.9116 39.3295 24.8636C39.3295 20.8156 36.048 17.5341 32 17.5341Z" fill="white"/>
<rect id="Rectangle 26" x="5.83331" y="5.8335" width="52.3333" height="52.3333" rx="3.5" stroke="white"/>
</g>
</svg>
